<svg xmlns="http://www.w3.org/2000/svg" xmlns:xlink="http://www.w3.org/1999/xlink" width="1587" zoomAndPan="magnify" viewBox="0 0 1190.25 1683.749949" height="2245" preserveAspectRatio="xMidYMid meet" version="1.0"><defs><filter x="0%" y="0%" width="100%" height="100%" id="fadc0da300"><feColorMatrix values="0 0 0 0 1 0 0 0 0 1 0 0 0 0 1 0 0 0 1 0" color-interpolation-filters="sRGB"/></filter><filter x="0%" y="0%" width="100%" height="100%" id="1dae21fc58"><feColorMatrix values="0 0 0 0 1 0 0 0 0 1 0 0 0 0 1 0.2126 0.7152 0.0722 0 0" color-interpolation-filters="sRGB"/></filter><g/><clipPath id="cbdfe3fa70"><path d="M 0 0.40625 L 1189.5 0.40625 L 1189.5 1683.09375 L 0 1683.09375 Z M 0 0.40625 " clip-rule="nonzero"/></clipPath><clipPath id="eb6621e6e1"><path d="M 0 94.011719 L 1189.5 94.011719 L 1189.5 1589 L 0 1589 Z M 0 94.011719 " clip-rule="nonzero"/></clipPath><clipPath id="0a2f122231"><path d="M 0 0.664062 L 1189.5 0.664062 L 1189.5 1494.925781 L 0 1494.925781 Z M 0 0.664062 " clip-rule="nonzero"/></clipPath><clipPath id="fe0d20ac00"><rect x="0" width="1190" y="0" height="1495"/></clipPath><clipPath id="5aa57f61fc"><path d="M 0 1447.207031 L 243 1447.207031 L 243 1491.429688 L 0 1491.429688 Z M 0 1447.207031 " clip-rule="nonzero"/></clipPath><clipPath id="ee56894aa6"><path d="M 1059.292969 1447.207031 L 1189.5 1447.207031 L 1189.5 1491.429688 L 1059.292969 1491.429688 Z M 1059.292969 1447.207031 " clip-rule="nonzero"/></clipPath><clipPath id="47ae1c7c36"><path d="M 327 276 L 1189.5 276 L 1189.5 679 L 327 679 Z M 327 276 " clip-rule="nonzero"/></clipPath><clipPath id="9ce4450dd7"><rect x="0" width="863" y="0" height="403"/></clipPath><clipPath id="994e10ced1"><rect x="0" width="348" y="0" height="289"/></clipPath><clipPath id="d470d76fc2"><rect x="0" width="163" y="0" height="263"/></clipPath><clipPath id="a3d04fcf99"><path d="M 70 727 L 598.773438 727 L 598.773438 1250 L 70 1250 Z M 70 727 " clip-rule="nonzero"/></clipPath><mask id="a7414a16ed"><g filter="url(#fadc0da300)"><g filter="url(#1dae21fc58)" transform="matrix(0.522892, 0, 0, 0.52317, 69.60764, 726.87225)"></g></g></mask><clipPath id="2079c47e87"><rect x="0" width="412" y="0" height="231"/></clipPath></defs><g clip-path="url(#cbdfe3fa70)"><path fill="#ffffff" d="M 0 0.40625 L 1189.5 0.40625 L 1189.5 1683.09375 L 0 1683.09375 Z M 0 0.40625 " fill-opacity="1" fill-rule="nonzero"/><path fill="#ffffff" d="M 0 0.40625 L 1189.5 0.40625 L 1189.5 1683.09375 L 0 1683.09375 Z M 0 0.40625 " fill-opacity="1" fill-rule="nonzero"/></g><g clip-path="url(#eb6621e6e1)"><g transform="matrix(1, 0, 0, 1, 0, 94)"><g clip-path="url(#fe0d20ac00)"><g clip-path="url(#0a2f122231)"><path fill="#81b673" d="M 668.972656 27.167969 C 598.203125 27.167969 527.996094 29.414062 457.230469 26.605469 C 407.804688 24.359375 358.941406 14.8125 309.515625 8.632812 C 284.242188 5.824219 259.53125 1.894531 234.253906 1.894531 C 183.707031 0.769531 132.597656 0.210938 82.046875 2.457031 C 56.210938 3.578125 30.375 10.320312 4.542969 14.25 C -7.253906 16.496094 -14.554688 27.167969 -20.171875 44.019531 C -29.15625 70.976562 -34.773438 98.496094 -37.019531 126.578125 C -42.074219 178.25 -46.570312 229.921875 -51.625 281.59375 C -58.363281 348.429688 -61.734375 416.390625 -62.296875 483.789062 C -62.855469 535.460938 -62.855469 587.132812 -61.734375 638.804688 C -60.609375 704.515625 -57.800781 769.667969 -56.117188 835.378906 C -54.992188 883.683594 -54.992188 931.421875 -54.992188 979.722656 C -54.992188 1034.765625 -49.378906 1088.121094 -45.445312 1142.601562 C -39.265625 1225.726562 -24.101562 1304.355469 -6.128906 1382.425781 C -1.074219 1404.890625 7.347656 1418.371094 21.953125 1423.988281 C 44.980469 1433.535156 69.128906 1440.277344 93.28125 1443.644531 C 115.1875 1447.015625 136.527344 1451.507812 157.308594 1457.6875 C 197.1875 1470.042969 238.75 1474.535156 279.75 1472.289062 C 350.515625 1468.921875 420.722656 1465.550781 491.492188 1460.496094 C 528.558594 1457.6875 565.628906 1448.699219 603.257812 1448.140625 C 698.738281 1447.015625 793.65625 1448.699219 889.136719 1451.507812 C 939.6875 1452.632812 990.796875 1457.125 1041.34375 1461.617188 C 1073.921875 1464.425781 1106.496094 1469.480469 1139.070312 1475.097656 C 1190.742188 1484.085938 1242.414062 1484.644531 1294.085938 1485.207031 C 1336.773438 1485.769531 1379.457031 1485.207031 1422.140625 1494.195312 C 1430.566406 1495.316406 1439.554688 1494.195312 1447.417969 1490.824219 C 1460.335938 1485.769531 1469.882812 1472.289062 1473.8125 1450.949219 C 1477.746094 1430.726562 1480.554688 1410.507812 1484.484375 1390.289062 C 1492.347656 1346.480469 1502.457031 1303.234375 1508.636719 1258.300781 C 1515.375 1207.753906 1519.867188 1156.644531 1523.238281 1105.535156 C 1524.921875 1077.449219 1522.675781 1048.808594 1521.554688 1020.722656 C 1519.867188 961.75 1518.183594 902.777344 1515.9375 843.804688 C 1514.253906 797.75 1510.882812 752.257812 1510.320312 706.203125 C 1509.199219 634.871094 1508.074219 563.542969 1509.199219 492.214844 C 1510.882812 416.390625 1508.074219 341.128906 1500.773438 265.867188 C 1497.964844 236.664062 1496.839844 206.335938 1493.472656 177.128906 C 1490.664062 156.910156 1487.292969 136.691406 1482.800781 116.46875 C 1478.308594 95.128906 1468.757812 85.578125 1454.15625 83.894531 C 1377.210938 75.46875 1299.703125 69.851562 1222.757812 65.921875 C 1186.25 64.238281 1149.179688 56.375 1112.671875 51.878906 C 1097.507812 50.195312 1082.34375 49.632812 1067.179688 46.824219 C 1036.851562 41.769531 1006.523438 35.59375 976.191406 31.101562 C 946.988281 26.605469 917.78125 20.429688 889.136719 19.867188 C 816.125 19.867188 742.546875 22.675781 669.53125 23.796875 Z M 668.972656 27.167969 " fill-opacity="1" fill-rule="nonzero"/></g></g></g></g><g clip-path="url(#47ae1c7c36)"><g transform="matrix(1, 0, 0, 1, 327, 276)"><g clip-path="url(#9ce4450dd7)"><g fill="#7a0000" fill-opacity="1"><g transform="translate(150.37817, 356.128972)"><g><path d="M -101.421875 -106.34375 L -80.96875 -130.734375 L 8.0625 -56.109375 L 40.546875 -94.859375 L 63.4375 -75.671875 L 10.5 -12.53125 Z M -101.421875 -106.34375 "/></g></g></g><g fill="#7a0000" fill-opacity="1"><g transform="translate(205.125062, 286.460582)"><g><path d="M -68.328125 -130.09375 L 0.828125 -176.90625 L 17.5625 -152.1875 L -25.234375 -123.21875 L -10.203125 -101.015625 L 21.03125 -122.15625 L 37.765625 -97.421875 L 6.53125 -76.28125 L 23.15625 -51.734375 L 66.84375 -81.3125 L 83.578125 -56.578125 L 13.53125 -9.15625 Z M -68.328125 -130.09375 "/></g></g></g><g fill="#7a0000" fill-opacity="1"><g transform="translate(277.846083, 228.939251)"><g><path d="M -21.09375 -145.421875 L 9.703125 -153.46875 L 24.140625 -98.21875 L 79.1875 -112.59375 L 64.75 -167.84375 L 95.546875 -175.890625 L 132.453125 -34.59375 L 101.65625 -26.546875 L 86.71875 -83.703125 L 31.671875 -69.328125 L 46.609375 -12.171875 L 15.8125 -4.125 Z M -21.09375 -145.421875 "/></g></g></g><g fill="#7a0000" fill-opacity="1"><g transform="translate(411.285134, 198.917359)"><g/></g></g><g fill="#7a0000" fill-opacity="1"><g transform="translate(451.499288, 198.52995)"><g/></g></g><g fill="#7a0000" fill-opacity="1"><g transform="translate(491.459507, 203.074609)"><g/></g></g><g fill="#7a0000" fill-opacity="1"><g transform="translate(527.115252, 207.412042)"><g><path d="M 78.578125 -124.203125 L 153.65625 -87.671875 L 140.59375 -60.8125 L 94.140625 -83.421875 L 82.421875 -59.3125 L 116.328125 -42.8125 L 103.265625 -15.953125 L 69.359375 -32.453125 L 56.390625 -5.796875 L 103.828125 17.28125 L 90.765625 44.140625 L 14.703125 7.140625 Z M 78.578125 -124.203125 "/></g></g></g><g fill="#7a0000" fill-opacity="1"><g transform="translate(613.387169, 240.693847)"><g><path d="M 94.78125 -27.09375 L 32.28125 33.375 L 11.359375 11.75 L 118.21875 -91.625 L 129.75 -79.71875 L 122.015625 41.171875 L 184.53125 -19.296875 L 205.453125 2.328125 L 98.609375 105.6875 L 87.09375 93.78125 Z M 94.78125 -27.09375 "/></g></g></g></g></g></g><g transform="matrix(1, 0, 0, 1, 68, 485)"><g clip-path="url(#994e10ced1)"><g fill="#7a0000" fill-opacity="1"><g transform="translate(13.778403, 192.286196)"><g><path d="M 88.890625 -133.3125 L 108.734375 -129.15625 L 134.640625 28.140625 L 101.78125 21.28125 L 98.0625 -4.65625 L 48.765625 -14.96875 L 35.203125 7.359375 L 2.140625 0.453125 Z M 94.09375 -33.546875 L 87.9375 -78.71875 L 64 -39.828125 Z M 94.09375 -33.546875 "/></g></g></g><g fill="#7a0000" fill-opacity="1"><g transform="translate(176.715985, 223.253899)"><g><path d="M 30.21875 -93.84375 L 45.703125 -8.265625 L 16.078125 -2.90625 L -10.390625 -149.203125 L 5.921875 -152.15625 L 102.09375 -78.515625 L 86.609375 -164.09375 L 116.21875 -169.453125 L 142.6875 -23.171875 L 126.375 -20.21875 Z M 30.21875 -93.84375 "/></g></g></g></g></g><g transform="matrix(1, 0, 0, 1, 730, 198)"><g clip-path="url(#d470d76fc2)"><g fill="#cc7a00" fill-opacity="1"><g transform="translate(1.061511, 195.868279)"><g><path d="M 46.4375 -86.96875 L 46.4375 0 L 16.34375 0 L 16.34375 -148.671875 L 32.921875 -148.671875 L 114.4375 -59.078125 L 114.4375 -146.046875 L 144.53125 -146.046875 L 144.53125 2.609375 L 127.953125 2.609375 Z M 46.4375 -86.96875 "/></g></g></g></g></g><g clip-path="url(#a3d04fcf99)"><g mask="url(#a7414a16ed)"><g transform="matrix(0.522892, 0, 0, 0.52317, 69.60764, 726.87225)"></g></g></g><g transform="matrix(1, 0, 0, 1, 571, 611)"><g clip-path="url(#2079c47e87)"><g fill="#7a0000" fill-opacity="1"><g transform="translate(0.420343, 52.394402)"><g><path d="M 15.234375 0.578125 C 13.472656 0.578125 11.828125 0.222656 10.296875 -0.484375 C 8.765625 -1.191406 7.421875 -2.171875 6.265625 -3.421875 C 5.117188 -4.671875 4.21875 -6.132812 3.5625 -7.8125 C 2.914062 -9.5 2.59375 -11.300781 2.59375 -13.21875 C 2.59375 -15.132812 2.914062 -16.9375 3.5625 -18.625 C 4.21875 -20.3125 5.117188 -21.773438 6.265625 -23.015625 C 7.421875 -24.265625 8.773438 -25.242188 10.328125 -25.953125 C 11.878906 -26.671875 13.535156 -27.03125 15.296875 -27.03125 C 17.285156 -27.03125 19.082031 -26.585938 20.6875 -25.703125 C 22.300781 -24.816406 23.644531 -23.585938 24.71875 -22.015625 L 24.71875 -40.828125 L 28.46875 -40.828125 L 28.46875 0 L 24.71875 0 L 24.71875 -4.484375 C 23.644531 -2.867188 22.296875 -1.617188 20.671875 -0.734375 C 19.046875 0.140625 17.234375 0.578125 15.234375 0.578125 Z M 15.875 -2.9375 C 17.25 -2.9375 18.507812 -3.203125 19.65625 -3.734375 C 20.8125 -4.273438 21.800781 -5.003906 22.625 -5.921875 C 23.445312 -6.835938 24.097656 -7.921875 24.578125 -9.171875 C 25.054688 -10.421875 25.296875 -11.769531 25.296875 -13.21875 C 25.296875 -14.675781 25.054688 -16.035156 24.578125 -17.296875 C 24.097656 -18.566406 23.445312 -19.660156 22.625 -20.578125 C 21.800781 -21.503906 20.8125 -22.234375 19.65625 -22.765625 C 18.507812 -23.304688 17.25 -23.578125 15.875 -23.578125 C 14.53125 -23.578125 13.28125 -23.304688 12.125 -22.765625 C 10.976562 -22.234375 9.984375 -21.503906 9.140625 -20.578125 C 8.296875 -19.660156 7.644531 -18.566406 7.1875 -17.296875 C 6.726562 -16.035156 6.5 -14.675781 6.5 -13.21875 C 6.5 -11.769531 6.738281 -10.410156 7.21875 -9.140625 C 7.695312 -7.878906 8.347656 -6.785156 9.171875 -5.859375 C 9.992188 -4.941406 10.976562 -4.222656 12.125 -3.703125 C 13.28125 -3.191406 14.53125 -2.9375 15.875 -2.9375 Z M 15.875 -2.9375 "/></g></g></g><g fill="#7a0000" fill-opacity="1"><g transform="translate(32.905534, 52.394402)"><g><path d="M 11.265625 0.578125 C 9.921875 0.578125 8.679688 0.378906 7.546875 -0.015625 C 6.421875 -0.421875 5.445312 -0.988281 4.625 -1.71875 C 3.800781 -2.445312 3.160156 -3.316406 2.703125 -4.328125 C 2.242188 -5.347656 2.015625 -6.453125 2.015625 -7.640625 C 2.015625 -8.910156 2.269531 -10.0625 2.78125 -11.09375 C 3.300781 -12.132812 4.019531 -13.035156 4.9375 -13.796875 C 5.863281 -14.566406 6.945312 -15.160156 8.1875 -15.578125 C 9.4375 -16.003906 10.789062 -16.21875 12.25 -16.21875 C 13.851562 -16.21875 15.269531 -16.050781 16.5 -15.71875 C 17.726562 -15.394531 18.9375 -14.867188 20.125 -14.140625 L 20.125 -15.8125 C 20.125 -18.1875 19.476562 -20.09375 18.1875 -21.53125 C 16.90625 -22.96875 15.210938 -23.6875 13.109375 -23.6875 C 10.390625 -23.6875 8.164062 -22.5 6.4375 -20.125 L 3.6875 -22.421875 C 4.945312 -23.921875 6.398438 -25.0625 8.046875 -25.84375 C 9.691406 -26.632812 11.4375 -27.03125 13.28125 -27.03125 C 14.8125 -27.03125 16.226562 -26.757812 17.53125 -26.21875 C 18.84375 -25.6875 19.96875 -24.941406 20.90625 -23.984375 C 21.84375 -23.023438 22.566406 -21.882812 23.078125 -20.5625 C 23.597656 -19.238281 23.859375 -17.804688 23.859375 -16.265625 L 23.859375 0 L 20.125 0 L 20.125 -4.140625 C 19.007812 -2.523438 17.703125 -1.332031 16.203125 -0.5625 C 14.710938 0.195312 13.066406 0.578125 11.265625 0.578125 Z M 11.953125 -2.765625 C 13.148438 -2.765625 14.242188 -2.953125 15.234375 -3.328125 C 16.234375 -3.710938 17.097656 -4.238281 17.828125 -4.90625 C 18.554688 -5.582031 19.117188 -6.398438 19.515625 -7.359375 C 19.921875 -8.316406 20.125 -9.367188 20.125 -10.515625 C 18.863281 -11.398438 17.628906 -12.039062 16.421875 -12.4375 C 15.210938 -12.84375 13.78125 -13.046875 12.125 -13.046875 C 10.175781 -13.046875 8.625 -12.578125 7.46875 -11.640625 C 6.320312 -10.703125 5.75 -9.425781 5.75 -7.8125 C 5.75 -6.25 6.300781 -5.015625 7.40625 -4.109375 C 8.519531 -3.210938 10.035156 -2.765625 11.953125 -2.765625 Z M 11.953125 -2.765625 "/></g></g></g><g fill="#7a0000" fill-opacity="1"><g transform="translate(60.503573, 52.394402)"><g><path d="M 13.171875 0.578125 C 10.867188 0.578125 8.769531 0.0976562 6.875 -0.859375 C 4.976562 -1.816406 3.359375 -3.273438 2.015625 -5.234375 L 4.765625 -7.59375 C 6.953125 -4.332031 9.789062 -2.703125 13.28125 -2.703125 C 15.125 -2.703125 16.585938 -3.09375 17.671875 -3.875 C 18.765625 -4.664062 19.3125 -5.734375 19.3125 -7.078125 C 19.3125 -8.179688 18.84375 -9.066406 17.90625 -9.734375 C 16.96875 -10.410156 15.40625 -11.035156 13.21875 -11.609375 C 9.925781 -12.453125 7.53125 -13.515625 6.03125 -14.796875 C 4.539062 -16.085938 3.796875 -17.710938 3.796875 -19.671875 C 3.796875 -21.890625 4.617188 -23.671875 6.265625 -25.015625 C 7.910156 -26.359375 10.097656 -27.03125 12.828125 -27.03125 C 14.890625 -27.03125 16.773438 -26.613281 18.484375 -25.78125 C 20.191406 -24.957031 21.660156 -23.742188 22.890625 -22.140625 L 20.125 -19.84375 C 18.28125 -22.445312 15.804688 -23.75 12.703125 -23.75 C 11.097656 -23.75 9.832031 -23.410156 8.90625 -22.734375 C 7.988281 -22.066406 7.53125 -21.140625 7.53125 -19.953125 C 7.53125 -18.835938 8 -17.9375 8.9375 -17.25 C 9.875 -16.5625 11.457031 -15.945312 13.6875 -15.40625 C 16.945312 -14.601562 19.320312 -13.554688 20.8125 -12.265625 C 22.3125 -10.984375 23.0625 -9.347656 23.0625 -7.359375 C 23.0625 -6.171875 22.820312 -5.085938 22.34375 -4.109375 C 21.863281 -3.128906 21.179688 -2.296875 20.296875 -1.609375 C 19.410156 -0.921875 18.363281 -0.382812 17.15625 0 C 15.957031 0.382812 14.628906 0.578125 13.171875 0.578125 Z M 13.171875 0.578125 "/></g></g></g><g fill="#7a0000" fill-opacity="1"><g transform="translate(86.146744, 52.394402)"><g/></g></g><g fill="#7a0000" fill-opacity="1"><g transform="translate(108.319649, 52.394402)"><g><path d="M 4.03125 -26.453125 L 7.765625 -26.453125 L 7.765625 -22.375 C 9.867188 -25.476562 12.609375 -27.03125 15.984375 -27.03125 C 17.398438 -27.03125 18.722656 -26.757812 19.953125 -26.21875 C 21.179688 -25.6875 22.222656 -24.941406 23.078125 -23.984375 C 23.941406 -23.023438 24.625 -21.882812 25.125 -20.5625 C 25.625 -19.238281 25.875 -17.804688 25.875 -16.265625 L 25.875 0 L 22.140625 0 L 22.140625 -15.75 C 22.140625 -18.164062 21.492188 -20.070312 20.203125 -21.46875 C 18.921875 -22.875 17.1875 -23.578125 15 -23.578125 C 12.820312 -23.578125 11.070312 -22.859375 9.75 -21.421875 C 8.425781 -19.984375 7.765625 -18.09375 7.765625 -15.75 L 7.765625 0 L 4.03125 0 Z M 4.03125 -26.453125 "/></g></g></g><g fill="#7a0000" fill-opacity="1"><g transform="translate(137.930044, 52.394402)"><g><path d="M 16.21875 0.578125 C 14.1875 0.578125 12.335938 0.234375 10.671875 -0.453125 C 9.003906 -1.148438 7.570312 -2.109375 6.375 -3.328125 C 5.1875 -4.554688 4.257812 -6.015625 3.59375 -7.703125 C 2.925781 -9.390625 2.59375 -11.226562 2.59375 -13.21875 C 2.59375 -15.21875 2.914062 -17.0625 3.5625 -18.75 C 4.21875 -20.4375 5.117188 -21.890625 6.265625 -23.109375 C 7.421875 -24.335938 8.789062 -25.296875 10.375 -25.984375 C 11.96875 -26.679688 13.722656 -27.03125 15.640625 -27.03125 C 17.441406 -27.03125 19.109375 -26.710938 20.640625 -26.078125 C 22.171875 -25.441406 23.492188 -24.566406 24.609375 -23.453125 C 25.722656 -22.347656 26.59375 -21.007812 27.21875 -19.4375 C 27.851562 -17.863281 28.171875 -16.140625 28.171875 -14.265625 C 28.171875 -13.492188 28.113281 -12.800781 28 -12.1875 L 6.5625 -12.1875 C 6.789062 -9.3125 7.796875 -7.054688 9.578125 -5.421875 C 11.359375 -3.796875 13.644531 -2.984375 16.4375 -2.984375 C 19.925781 -2.984375 22.84375 -4.328125 25.1875 -7.015625 L 27.59375 -5 C 26.21875 -3.164062 24.550781 -1.773438 22.59375 -0.828125 C 20.644531 0.109375 18.519531 0.578125 16.21875 0.578125 Z M 24.15625 -15.53125 C 23.84375 -18.050781 22.910156 -20 21.359375 -21.375 C 19.804688 -22.757812 17.863281 -23.453125 15.53125 -23.453125 C 13.113281 -23.453125 11.128906 -22.734375 9.578125 -21.296875 C 8.023438 -19.859375 7.054688 -17.9375 6.671875 -15.53125 Z M 24.15625 -15.53125 "/></g></g></g><g fill="#7a0000" fill-opacity="1"><g transform="translate(168.402869, 52.394402)"><g><path d="M 13.625 0.578125 C 12.164062 0.578125 10.832031 0.3125 9.625 -0.21875 C 8.414062 -0.757812 7.378906 -1.507812 6.515625 -2.46875 C 5.660156 -3.425781 4.984375 -4.554688 4.484375 -5.859375 C 3.984375 -7.160156 3.734375 -8.597656 3.734375 -10.171875 L 3.734375 -26.453125 L 7.46875 -26.453125 L 7.46875 -10.6875 C 7.46875 -8.28125 8.109375 -6.375 9.390625 -4.96875 C 10.679688 -3.570312 12.421875 -2.875 14.609375 -2.875 C 16.785156 -2.875 18.535156 -3.59375 19.859375 -5.03125 C 21.179688 -6.46875 21.84375 -8.351562 21.84375 -10.6875 L 21.84375 -26.453125 L 25.59375 -26.453125 L 25.59375 0 L 21.84375 0 L 21.84375 -4.078125 C 19.695312 -0.972656 16.957031 0.578125 13.625 0.578125 Z M 13.625 0.578125 "/></g></g></g><g fill="#7a0000" fill-opacity="1"><g transform="translate(198.013264, 52.394402)"><g><path d="M 16.21875 0.578125 C 14.1875 0.578125 12.335938 0.234375 10.671875 -0.453125 C 9.003906 -1.148438 7.570312 -2.109375 6.375 -3.328125 C 5.1875 -4.554688 4.257812 -6.015625 3.59375 -7.703125 C 2.925781 -9.390625 2.59375 -11.226562 2.59375 -13.21875 C 2.59375 -15.21875 2.914062 -17.0625 3.5625 -18.75 C 4.21875 -20.4375 5.117188 -21.890625 6.265625 -23.109375 C 7.421875 -24.335938 8.789062 -25.296875 10.375 -25.984375 C 11.96875 -26.679688 13.722656 -27.03125 15.640625 -27.03125 C 17.441406 -27.03125 19.109375 -26.710938 20.640625 -26.078125 C 22.171875 -25.441406 23.492188 -24.566406 24.609375 -23.453125 C 25.722656 -22.347656 26.59375 -21.007812 27.21875 -19.4375 C 27.851562 -17.863281 28.171875 -16.140625 28.171875 -14.265625 C 28.171875 -13.492188 28.113281 -12.800781 28 -12.1875 L 6.5625 -12.1875 C 6.789062 -9.3125 7.796875 -7.054688 9.578125 -5.421875 C 11.359375 -3.796875 13.644531 -2.984375 16.4375 -2.984375 C 19.925781 -2.984375 22.84375 -4.328125 25.1875 -7.015625 L 27.59375 -5 C 26.21875 -3.164062 24.550781 -1.773438 22.59375 -0.828125 C 20.644531 0.109375 18.519531 0.578125 16.21875 0.578125 Z M 24.15625 -15.53125 C 23.84375 -18.050781 22.910156 -20 21.359375 -21.375 C 19.804688 -22.757812 17.863281 -23.453125 15.53125 -23.453125 C 13.113281 -23.453125 11.128906 -22.734375 9.578125 -21.296875 C 8.023438 -19.859375 7.054688 -17.9375 6.671875 -15.53125 Z M 24.15625 -15.53125 "/></g></g></g><g fill="#7a0000" fill-opacity="1"><g transform="translate(228.486099, 52.394402)"><g/></g></g><g fill="#7a0000" fill-opacity="1"><g transform="translate(250.658993, 52.394402)"><g><path d="M 5.171875 -38.53125 L 14.375 -38.53125 C 16.289062 -38.53125 18.0625 -38.238281 19.6875 -37.65625 C 21.320312 -37.082031 22.722656 -36.273438 23.890625 -35.234375 C 25.054688 -34.203125 25.960938 -32.976562 26.609375 -31.5625 C 27.265625 -30.144531 27.59375 -28.59375 27.59375 -26.90625 C 27.59375 -25.21875 27.265625 -23.664062 26.609375 -22.25 C 25.960938 -20.832031 25.054688 -19.601562 23.890625 -18.5625 C 22.722656 -17.53125 21.320312 -16.726562 19.6875 -16.15625 C 18.0625 -15.582031 16.289062 -15.296875 14.375 -15.296875 L 9.203125 -15.296875 L 9.203125 0 L 5.171875 0 Z M 14.375 -19.03125 C 17.132812 -19.03125 19.359375 -19.75 21.046875 -21.1875 C 22.734375 -22.625 23.578125 -24.550781 23.578125 -26.96875 C 23.578125 -29.34375 22.734375 -31.238281 21.046875 -32.65625 C 19.359375 -34.070312 17.132812 -34.78125 14.375 -34.78125 L 9.203125 -34.78125 L 9.203125 -19.03125 Z M 14.375 -19.03125 "/></g></g></g><g fill="#7a0000" fill-opacity="1"><g transform="translate(278.544499, 52.394402)"><g><path d="M 11.265625 0.578125 C 9.921875 0.578125 8.679688 0.378906 7.546875 -0.015625 C 6.421875 -0.421875 5.445312 -0.988281 4.625 -1.71875 C 3.800781 -2.445312 3.160156 -3.316406 2.703125 -4.328125 C 2.242188 -5.347656 2.015625 -6.453125 2.015625 -7.640625 C 2.015625 -8.910156 2.269531 -10.0625 2.78125 -11.09375 C 3.300781 -12.132812 4.019531 -13.035156 4.9375 -13.796875 C 5.863281 -14.566406 6.945312 -15.160156 8.1875 -15.578125 C 9.4375 -16.003906 10.789062 -16.21875 12.25 -16.21875 C 13.851562 -16.21875 15.269531 -16.050781 16.5 -15.71875 C 17.726562 -15.394531 18.9375 -14.867188 20.125 -14.140625 L 20.125 -15.8125 C 20.125 -18.1875 19.476562 -20.09375 18.1875 -21.53125 C 16.90625 -22.96875 15.210938 -23.6875 13.109375 -23.6875 C 10.390625 -23.6875 8.164062 -22.5 6.4375 -20.125 L 3.6875 -22.421875 C 4.945312 -23.921875 6.398438 -25.0625 8.046875 -25.84375 C 9.691406 -26.632812 11.4375 -27.03125 13.28125 -27.03125 C 14.8125 -27.03125 16.226562 -26.757812 17.53125 -26.21875 C 18.84375 -25.6875 19.96875 -24.941406 20.90625 -23.984375 C 21.84375 -23.023438 22.566406 -21.882812 23.078125 -20.5625 C 23.597656 -19.238281 23.859375 -17.804688 23.859375 -16.265625 L 23.859375 0 L 20.125 0 L 20.125 -4.140625 C 19.007812 -2.523438 17.703125 -1.332031 16.203125 -0.5625 C 14.710938 0.195312 13.066406 0.578125 11.265625 0.578125 Z M 11.953125 -2.765625 C 13.148438 -2.765625 14.242188 -2.953125 15.234375 -3.328125 C 16.234375 -3.710938 17.097656 -4.238281 17.828125 -4.90625 C 18.554688 -5.582031 19.117188 -6.398438 19.515625 -7.359375 C 19.921875 -8.316406 20.125 -9.367188 20.125 -10.515625 C 18.863281 -11.398438 17.628906 -12.039062 16.421875 -12.4375 C 15.210938 -12.84375 13.78125 -13.046875 12.125 -13.046875 C 10.175781 -13.046875 8.625 -12.578125 7.46875 -11.640625 C 6.320312 -10.703125 5.75 -9.425781 5.75 -7.8125 C 5.75 -6.25 6.300781 -5.015625 7.40625 -4.109375 C 8.519531 -3.210938 10.035156 -2.765625 11.953125 -2.765625 Z M 11.953125 -2.765625 "/></g></g></g><g fill="#7a0000" fill-opacity="1"><g transform="translate(306.142529, 52.394402)"><g><path d="M 4.03125 -26.453125 L 7.765625 -26.453125 L 7.765625 -22.421875 C 9.796875 -25.492188 12.363281 -27.03125 15.46875 -27.03125 C 15.769531 -27.03125 16.054688 -27.019531 16.328125 -27 C 16.597656 -26.976562 16.828125 -26.945312 17.015625 -26.90625 L 16.265625 -22.71875 C 15.804688 -22.832031 15.289062 -22.890625 14.71875 -22.890625 C 12.644531 -22.890625 10.96875 -22.253906 9.6875 -20.984375 C 8.40625 -19.722656 7.765625 -17.976562 7.765625 -15.75 L 7.765625 0 L 4.03125 0 Z M 4.03125 -26.453125 "/></g></g></g><g fill="#7a0000" fill-opacity="1"><g transform="translate(324.023762, 52.394402)"><g><path d="M 4.03125 -40.828125 L 7.765625 -40.828125 L 7.765625 -14.09375 L 19.71875 -26.453125 L 24.15625 -26.453125 L 11.84375 -13.859375 L 24.84375 0 L 19.890625 0 L 7.765625 -12.875 L 7.765625 0 L 4.03125 0 Z M 4.03125 -40.828125 "/></g></g></g><g fill="#7a0000" fill-opacity="1"><g transform="translate(349.149478, 52.394402)"><g><path d="M 4.03125 -40.828125 L 7.765625 -40.828125 L 7.765625 0 L 4.03125 0 Z M 4.03125 -40.828125 "/></g></g></g><g fill="#7a0000" fill-opacity="1"><g transform="translate(360.936136, 52.394402)"><g><path d="M 16.21875 0.578125 C 14.1875 0.578125 12.335938 0.234375 10.671875 -0.453125 C 9.003906 -1.148438 7.570312 -2.109375 6.375 -3.328125 C 5.1875 -4.554688 4.257812 -6.015625 3.59375 -7.703125 C 2.925781 -9.390625 2.59375 -11.226562 2.59375 -13.21875 C 2.59375 -15.21875 2.914062 -17.0625 3.5625 -18.75 C 4.21875 -20.4375 5.117188 -21.890625 6.265625 -23.109375 C 7.421875 -24.335938 8.789062 -25.296875 10.375 -25.984375 C 11.96875 -26.679688 13.722656 -27.03125 15.640625 -27.03125 C 17.441406 -27.03125 19.109375 -26.710938 20.640625 -26.078125 C 22.171875 -25.441406 23.492188 -24.566406 24.609375 -23.453125 C 25.722656 -22.347656 26.59375 -21.007812 27.21875 -19.4375 C 27.851562 -17.863281 28.171875 -16.140625 28.171875 -14.265625 C 28.171875 -13.492188 28.113281 -12.800781 28 -12.1875 L 6.5625 -12.1875 C 6.789062 -9.3125 7.796875 -7.054688 9.578125 -5.421875 C 11.359375 -3.796875 13.644531 -2.984375 16.4375 -2.984375 C 19.925781 -2.984375 22.84375 -4.328125 25.1875 -7.015625 L 27.59375 -5 C 26.21875 -3.164062 24.550781 -1.773438 22.59375 -0.828125 C 20.644531 0.109375 18.519531 0.578125 16.21875 0.578125 Z M 24.15625 -15.53125 C 23.84375 -18.050781 22.910156 -20 21.359375 -21.375 C 19.804688 -22.757812 17.863281 -23.453125 15.53125 -23.453125 C 13.113281 -23.453125 11.128906 -22.734375 9.578125 -21.296875 C 8.023438 -19.859375 7.054688 -17.9375 6.671875 -15.53125 Z M 24.15625 -15.53125 "/></g></g></g><g fill="#7a0000" fill-opacity="1"><g transform="translate(391.408972, 52.394402)"><g><path d="M 13.109375 0.578125 C 10.921875 0.578125 9.191406 -0.0976562 7.921875 -1.453125 C 6.660156 -2.816406 6.03125 -4.691406 6.03125 -7.078125 L 6.03125 -23.109375 L 2.015625 -23.109375 L 2.015625 -26.453125 L 6.03125 -26.453125 L 6.03125 -33.46875 L 9.78125 -33.46875 L 9.78125 -26.453125 L 17.65625 -26.453125 L 17.65625 -23.109375 L 9.78125 -23.109375 L 9.78125 -7.078125 C 9.78125 -5.691406 10.113281 -4.625 10.78125 -3.875 C 11.445312 -3.132812 12.394531 -2.765625 13.625 -2.765625 C 15.195312 -2.765625 16.539062 -3.375 17.65625 -4.59375 L 19.5 -2.421875 C 18.6875 -1.460938 17.753906 -0.722656 16.703125 -0.203125 C 15.648438 0.316406 14.453125 0.578125 13.109375 0.578125 Z M 13.109375 0.578125 "/></g></g></g><g fill="#7a0000" fill-opacity="1"><g transform="translate(0.420343, 132.822266)"><g><path d="M 4.03125 -26.453125 L 7.765625 -26.453125 L 7.765625 0 L 4.03125 0 Z M 5.859375 -31.859375 C 5.097656 -31.859375 4.457031 -32.125 3.9375 -32.65625 C 3.414062 -33.195312 3.15625 -33.847656 3.15625 -34.609375 C 3.15625 -35.378906 3.421875 -36.03125 3.953125 -36.5625 C 4.492188 -37.101562 5.148438 -37.375 5.921875 -37.375 C 6.691406 -37.375 7.332031 -37.101562 7.84375 -36.5625 C 8.363281 -36.03125 8.625 -35.378906 8.625 -34.609375 C 8.625 -33.847656 8.351562 -33.195312 7.8125 -32.65625 C 7.28125 -32.125 6.628906 -31.859375 5.859375 -31.859375 Z M 5.859375 -31.859375 "/></g></g></g><g fill="#7a0000" fill-opacity="1"><g transform="translate(12.207002, 132.822266)"><g><path d="M 4.03125 -26.453125 L 7.765625 -26.453125 L 7.765625 -22.375 C 9.867188 -25.476562 12.609375 -27.03125 15.984375 -27.03125 C 17.398438 -27.03125 18.722656 -26.757812 19.953125 -26.21875 C 21.179688 -25.6875 22.222656 -24.941406 23.078125 -23.984375 C 23.941406 -23.023438 24.625 -21.882812 25.125 -20.5625 C 25.625 -19.238281 25.875 -17.804688 25.875 -16.265625 L 25.875 0 L 22.140625 0 L 22.140625 -15.75 C 22.140625 -18.164062 21.492188 -20.070312 20.203125 -21.46875 C 18.921875 -22.875 17.1875 -23.578125 15 -23.578125 C 12.820312 -23.578125 11.070312 -22.859375 9.75 -21.421875 C 8.425781 -19.984375 7.765625 -18.09375 7.765625 -15.75 L 7.765625 0 L 4.03125 0 Z M 4.03125 -26.453125 "/></g></g></g><g fill="#7a0000" fill-opacity="1"><g transform="translate(41.817397, 132.822266)"><g/></g></g><g fill="#7a0000" fill-opacity="1"><g transform="translate(330.926879, 132.822266)"><g><path d="M 15.234375 0.578125 C 13.472656 0.578125 11.828125 0.222656 10.296875 -0.484375 C 8.765625 -1.191406 7.421875 -2.171875 6.265625 -3.421875 C 5.117188 -4.671875 4.21875 -6.132812 3.5625 -7.8125 C 2.914062 -9.5 2.59375 -11.300781 2.59375 -13.21875 C 2.59375 -15.132812 2.914062 -16.9375 3.5625 -18.625 C 4.21875 -20.3125 5.117188 -21.773438 6.265625 -23.015625 C 7.421875 -24.265625 8.773438 -25.242188 10.328125 -25.953125 C 11.878906 -26.671875 13.535156 -27.03125 15.296875 -27.03125 C 17.285156 -27.03125 19.082031 -26.585938 20.6875 -25.703125 C 22.300781 -24.816406 23.644531 -23.585938 24.71875 -22.015625 L 24.71875 -40.828125 L 28.46875 -40.828125 L 28.46875 0 L 24.71875 0 L 24.71875 -4.484375 C 23.644531 -2.867188 22.296875 -1.617188 20.671875 -0.734375 C 19.046875 0.140625 17.234375 0.578125 15.234375 0.578125 Z M 15.875 -2.9375 C 17.25 -2.9375 18.507812 -3.203125 19.65625 -3.734375 C 20.8125 -4.273438 21.800781 -5.003906 22.625 -5.921875 C 23.445312 -6.835938 24.097656 -7.921875 24.578125 -9.171875 C 25.054688 -10.421875 25.296875 -11.769531 25.296875 -13.21875 C 25.296875 -14.675781 25.054688 -16.035156 24.578125 -17.296875 C 24.097656 -18.566406 23.445312 -19.660156 22.625 -20.578125 C 21.800781 -21.503906 20.8125 -22.234375 19.65625 -22.765625 C 18.507812 -23.304688 17.25 -23.578125 15.875 -23.578125 C 14.53125 -23.578125 13.28125 -23.304688 12.125 -22.765625 C 10.976562 -22.234375 9.984375 -21.503906 9.140625 -20.578125 C 8.296875 -19.660156 7.644531 -18.566406 7.1875 -17.296875 C 6.726562 -16.035156 6.5 -14.675781 6.5 -13.21875 C 6.5 -11.769531 6.738281 -10.410156 7.21875 -9.140625 C 7.695312 -7.878906 8.347656 -6.785156 9.171875 -5.859375 C 9.992188 -4.941406 10.976562 -4.222656 12.125 -3.703125 C 13.28125 -3.191406 14.53125 -2.9375 15.875 -2.9375 Z M 15.875 -2.9375 "/></g></g></g><g fill="#7a0000" fill-opacity="1"><g transform="translate(363.41205, 132.822266)"><g><path d="M 16.21875 0.578125 C 14.1875 0.578125 12.335938 0.234375 10.671875 -0.453125 C 9.003906 -1.148438 7.570312 -2.109375 6.375 -3.328125 C 5.1875 -4.554688 4.257812 -6.015625 3.59375 -7.703125 C 2.925781 -9.390625 2.59375 -11.226562 2.59375 -13.21875 C 2.59375 -15.21875 2.914062 -17.0625 3.5625 -18.75 C 4.21875 -20.4375 5.117188 -21.890625 6.265625 -23.109375 C 7.421875 -24.335938 8.789062 -25.296875 10.375 -25.984375 C 11.96875 -26.679688 13.722656 -27.03125 15.640625 -27.03125 C 17.441406 -27.03125 19.109375 -26.710938 20.640625 -26.078125 C 22.171875 -25.441406 23.492188 -24.566406 24.609375 -23.453125 C 25.722656 -22.347656 26.59375 -21.007812 27.21875 -19.4375 C 27.851562 -17.863281 28.171875 -16.140625 28.171875 -14.265625 C 28.171875 -13.492188 28.113281 -12.800781 28 -12.1875 L 6.5625 -12.1875 C 6.789062 -9.3125 7.796875 -7.054688 9.578125 -5.421875 C 11.359375 -3.796875 13.644531 -2.984375 16.4375 -2.984375 C 19.925781 -2.984375 22.84375 -4.328125 25.1875 -7.015625 L 27.59375 -5 C 26.21875 -3.164062 24.550781 -1.773438 22.59375 -0.828125 C 20.644531 0.109375 18.519531 0.578125 16.21875 0.578125 Z M 24.15625 -15.53125 C 23.84375 -18.050781 22.910156 -20 21.359375 -21.375 C 19.804688 -22.757812 17.863281 -23.453125 15.53125 -23.453125 C 13.113281 -23.453125 11.128906 -22.734375 9.578125 -21.296875 C 8.023438 -19.859375 7.054688 -17.9375 6.671875 -15.53125 Z M 24.15625 -15.53125 "/></g></g></g><g fill="#7a0000" fill-opacity="1"><g transform="translate(393.884885, 132.822266)"><g><path d="M 4.03125 -26.453125 L 7.765625 -26.453125 L 7.765625 -22.421875 C 9.796875 -25.492188 12.363281 -27.03125 15.46875 -27.03125 C 15.769531 -27.03125 16.054688 -27.019531 16.328125 -27 C 16.597656 -26.976562 16.828125 -26.945312 17.015625 -26.90625 L 16.265625 -22.71875 C 15.804688 -22.832031 15.289062 -22.890625 14.71875 -22.890625 C 12.644531 -22.890625 10.96875 -22.253906 9.6875 -20.984375 C 8.40625 -19.722656 7.765625 -17.976562 7.765625 -15.75 L 7.765625 0 L 4.03125 0 Z M 4.03125 -26.453125 "/></g></g></g><g fill="#7a0000" fill-opacity="1"><g transform="translate(0.420343, 213.25013)"><g><path d="M 16.390625 -39.671875 L 17.53125 -39.671875 L 32.203125 0 L 27.765625 0 L 24.15625 -10.125 L 9.546875 -10.125 L 5.921875 0 L 1.71875 0 Z M 22.828125 -13.859375 L 16.84375 -30.53125 L 10.875 -13.859375 Z M 22.828125 -13.859375 "/></g></g></g><g fill="#7a0000" fill-opacity="1"><g transform="translate(34.342926, 213.25013)"><g><path d="M 4.03125 -40.828125 L 7.765625 -40.828125 L 7.765625 0 L 4.03125 0 Z M 4.03125 -40.828125 "/></g></g></g><g fill="#7a0000" fill-opacity="1"><g transform="translate(46.129585, 213.25013)"><g><path d="M 16.21875 0.578125 C 14.1875 0.578125 12.335938 0.234375 10.671875 -0.453125 C 9.003906 -1.148438 7.570312 -2.109375 6.375 -3.328125 C 5.1875 -4.554688 4.257812 -6.015625 3.59375 -7.703125 C 2.925781 -9.390625 2.59375 -11.226562 2.59375 -13.21875 C 2.59375 -15.21875 2.914062 -17.0625 3.5625 -18.75 C 4.21875 -20.4375 5.117188 -21.890625 6.265625 -23.109375 C 7.421875 -24.335938 8.789062 -25.296875 10.375 -25.984375 C 11.96875 -26.679688 13.722656 -27.03125 15.640625 -27.03125 C 17.441406 -27.03125 19.109375 -26.710938 20.640625 -26.078125 C 22.171875 -25.441406 23.492188 -24.566406 24.609375 -23.453125 C 25.722656 -22.347656 26.59375 -21.007812 27.21875 -19.4375 C 27.851562 -17.863281 28.171875 -16.140625 28.171875 -14.265625 C 28.171875 -13.492188 28.113281 -12.800781 28 -12.1875 L 6.5625 -12.1875 C 6.789062 -9.3125 7.796875 -7.054688 9.578125 -5.421875 C 11.359375 -3.796875 13.644531 -2.984375 16.4375 -2.984375 C 19.925781 -2.984375 22.84375 -4.328125 25.1875 -7.015625 L 27.59375 -5 C 26.21875 -3.164062 24.550781 -1.773438 22.59375 -0.828125 C 20.644531 0.109375 18.519531 0.578125 16.21875 0.578125 Z M 24.15625 -15.53125 C 23.84375 -18.050781 22.910156 -20 21.359375 -21.375 C 19.804688 -22.757812 17.863281 -23.453125 15.53125 -23.453125 C 13.113281 -23.453125 11.128906 -22.734375 9.578125 -21.296875 C 8.023438 -19.859375 7.054688 -17.9375 6.671875 -15.53125 Z M 24.15625 -15.53125 "/></g></g></g><g fill="#7a0000" fill-opacity="1"><g transform="translate(75.452494, 213.25013)"><g><path d="M 9.828125 -13.515625 L 1.5 -26.453125 L 5.984375 -26.453125 L 12.3125 -16.390625 L 18.578125 -26.453125 L 22.828125 -26.453125 L 14.4375 -13.515625 L 23.0625 0 L 18.625 0 L 11.953125 -10.578125 L 5.40625 0 L 1.15625 0 Z M 9.828125 -13.515625 "/></g></g></g><g fill="#7a0000" fill-opacity="1"><g transform="translate(99.083309, 213.25013)"><g><path d="M 11.265625 0.578125 C 9.921875 0.578125 8.679688 0.378906 7.546875 -0.015625 C 6.421875 -0.421875 5.445312 -0.988281 4.625 -1.71875 C 3.800781 -2.445312 3.160156 -3.316406 2.703125 -4.328125 C 2.242188 -5.347656 2.015625 -6.453125 2.015625 -7.640625 C 2.015625 -8.910156 2.269531 -10.0625 2.78125 -11.09375 C 3.300781 -12.132812 4.019531 -13.035156 4.9375 -13.796875 C 5.863281 -14.566406 6.945312 -15.160156 8.1875 -15.578125 C 9.4375 -16.003906 10.789062 -16.21875 12.25 -16.21875 C 13.851562 -16.21875 15.269531 -16.050781 16.5 -15.71875 C 17.726562 -15.394531 18.9375 -14.867188 20.125 -14.140625 L 20.125 -15.8125 C 20.125 -18.1875 19.476562 -20.09375 18.1875 -21.53125 C 16.90625 -22.96875 15.210938 -23.6875 13.109375 -23.6875 C 10.390625 -23.6875 8.164062 -22.5 6.4375 -20.125 L 3.6875 -22.421875 C 4.945312 -23.921875 6.398438 -25.0625 8.046875 -25.84375 C 9.691406 -26.632812 11.4375 -27.03125 13.28125 -27.03125 C 14.8125 -27.03125 16.226562 -26.757812 17.53125 -26.21875 C 18.84375 -25.6875 19.96875 -24.941406 20.90625 -23.984375 C 21.84375 -23.023438 22.566406 -21.882812 23.078125 -20.5625 C 23.597656 -19.238281 23.859375 -17.804688 23.859375 -16.265625 L 23.859375 0 L 20.125 0 L 20.125 -4.140625 C 19.007812 -2.523438 17.703125 -1.332031 16.203125 -0.5625 C 14.710938 0.195312 13.066406 0.578125 11.265625 0.578125 Z M 11.953125 -2.765625 C 13.148438 -2.765625 14.242188 -2.953125 15.234375 -3.328125 C 16.234375 -3.710938 17.097656 -4.238281 17.828125 -4.90625 C 18.554688 -5.582031 19.117188 -6.398438 19.515625 -7.359375 C 19.921875 -8.316406 20.125 -9.367188 20.125 -10.515625 C 18.863281 -11.398438 17.628906 -12.039062 16.421875 -12.4375 C 15.210938 -12.84375 13.78125 -13.046875 12.125 -13.046875 C 10.175781 -13.046875 8.625 -12.578125 7.46875 -11.640625 C 6.320312 -10.703125 5.75 -9.425781 5.75 -7.8125 C 5.75 -6.25 6.300781 -5.015625 7.40625 -4.109375 C 8.519531 -3.210938 10.035156 -2.765625 11.953125 -2.765625 Z M 11.953125 -2.765625 "/></g></g></g><g fill="#7a0000" fill-opacity="1"><g transform="translate(126.681349, 213.25013)"><g><path d="M 4.03125 -26.453125 L 7.765625 -26.453125 L 7.765625 -22.375 C 9.867188 -25.476562 12.609375 -27.03125 15.984375 -27.03125 C 17.398438 -27.03125 18.722656 -26.757812 19.953125 -26.21875 C 21.179688 -25.6875 22.222656 -24.941406 23.078125 -23.984375 C 23.941406 -23.023438 24.625 -21.882812 25.125 -20.5625 C 25.625 -19.238281 25.875 -17.804688 25.875 -16.265625 L 25.875 0 L 22.140625 0 L 22.140625 -15.75 C 22.140625 -18.164062 21.492188 -20.070312 20.203125 -21.46875 C 18.921875 -22.875 17.1875 -23.578125 15 -23.578125 C 12.820312 -23.578125 11.070312 -22.859375 9.75 -21.421875 C 8.425781 -19.984375 7.765625 -18.09375 7.765625 -15.75 L 7.765625 0 L 4.03125 0 Z M 4.03125 -26.453125 "/></g></g></g><g fill="#7a0000" fill-opacity="1"><g transform="translate(156.291745, 213.25013)"><g><path d="M 15.234375 0.578125 C 13.472656 0.578125 11.828125 0.222656 10.296875 -0.484375 C 8.765625 -1.191406 7.421875 -2.171875 6.265625 -3.421875 C 5.117188 -4.671875 4.21875 -6.132812 3.5625 -7.8125 C 2.914062 -9.5 2.59375 -11.300781 2.59375 -13.21875 C 2.59375 -15.132812 2.914062 -16.9375 3.5625 -18.625 C 4.21875 -20.3125 5.117188 -21.773438 6.265625 -23.015625 C 7.421875 -24.265625 8.773438 -25.242188 10.328125 -25.953125 C 11.878906 -26.671875 13.535156 -27.03125 15.296875 -27.03125 C 17.285156 -27.03125 19.082031 -26.585938 20.6875 -25.703125 C 22.300781 -24.816406 23.644531 -23.585938 24.71875 -22.015625 L 24.71875 -40.828125 L 28.46875 -40.828125 L 28.46875 0 L 24.71875 0 L 24.71875 -4.484375 C 23.644531 -2.867188 22.296875 -1.617188 20.671875 -0.734375 C 19.046875 0.140625 17.234375 0.578125 15.234375 0.578125 Z M 15.875 -2.9375 C 17.25 -2.9375 18.507812 -3.203125 19.65625 -3.734375 C 20.8125 -4.273438 21.800781 -5.003906 22.625 -5.921875 C 23.445312 -6.835938 24.097656 -7.921875 24.578125 -9.171875 C 25.054688 -10.421875 25.296875 -11.769531 25.296875 -13.21875 C 25.296875 -14.675781 25.054688 -16.035156 24.578125 -17.296875 C 24.097656 -18.566406 23.445312 -19.660156 22.625 -20.578125 C 21.800781 -21.503906 20.8125 -22.234375 19.65625 -22.765625 C 18.507812 -23.304688 17.25 -23.578125 15.875 -23.578125 C 14.53125 -23.578125 13.28125 -23.304688 12.125 -22.765625 C 10.976562 -22.234375 9.984375 -21.503906 9.140625 -20.578125 C 8.296875 -19.660156 7.644531 -18.566406 7.1875 -17.296875 C 6.726562 -16.035156 6.5 -14.675781 6.5 -13.21875 C 6.5 -11.769531 6.738281 -10.410156 7.21875 -9.140625 C 7.695312 -7.878906 8.347656 -6.785156 9.171875 -5.859375 C 9.992188 -4.941406 10.976562 -4.222656 12.125 -3.703125 C 13.28125 -3.191406 14.53125 -2.9375 15.875 -2.9375 Z M 15.875 -2.9375 "/></g></g></g><g fill="#7a0000" fill-opacity="1"><g transform="translate(188.776936, 213.25013)"><g><path d="M 16.21875 0.578125 C 14.1875 0.578125 12.335938 0.234375 10.671875 -0.453125 C 9.003906 -1.148438 7.570312 -2.109375 6.375 -3.328125 C 5.1875 -4.554688 4.257812 -6.015625 3.59375 -7.703125 C 2.925781 -9.390625 2.59375 -11.226562 2.59375 -13.21875 C 2.59375 -15.21875 2.914062 -17.0625 3.5625 -18.75 C 4.21875 -20.4375 5.117188 -21.890625 6.265625 -23.109375 C 7.421875 -24.335938 8.789062 -25.296875 10.375 -25.984375 C 11.96875 -26.679688 13.722656 -27.03125 15.640625 -27.03125 C 17.441406 -27.03125 19.109375 -26.710938 20.640625 -26.078125 C 22.171875 -25.441406 23.492188 -24.566406 24.609375 -23.453125 C 25.722656 -22.347656 26.59375 -21.007812 27.21875 -19.4375 C 27.851562 -17.863281 28.171875 -16.140625 28.171875 -14.265625 C 28.171875 -13.492188 28.113281 -12.800781 28 -12.1875 L 6.5625 -12.1875 C 6.789062 -9.3125 7.796875 -7.054688 9.578125 -5.421875 C 11.359375 -3.796875 13.644531 -2.984375 16.4375 -2.984375 C 19.925781 -2.984375 22.84375 -4.328125 25.1875 -7.015625 L 27.59375 -5 C 26.21875 -3.164062 24.550781 -1.773438 22.59375 -0.828125 C 20.644531 0.109375 18.519531 0.578125 16.21875 0.578125 Z M 24.15625 -15.53125 C 23.84375 -18.050781 22.910156 -20 21.359375 -21.375 C 19.804688 -22.757812 17.863281 -23.453125 15.53125 -23.453125 C 13.113281 -23.453125 11.128906 -22.734375 9.578125 -21.296875 C 8.023438 -19.859375 7.054688 -17.9375 6.671875 -15.53125 Z M 24.15625 -15.53125 "/></g></g></g><g fill="#7a0000" fill-opacity="1"><g transform="translate(219.249771, 213.25013)"><g><path d="M 4.03125 -26.453125 L 7.765625 -26.453125 L 7.765625 -22.421875 C 9.796875 -25.492188 12.363281 -27.03125 15.46875 -27.03125 C 15.769531 -27.03125 16.054688 -27.019531 16.328125 -27 C 16.597656 -26.976562 16.828125 -26.945312 17.015625 -26.90625 L 16.265625 -22.71875 C 15.804688 -22.832031 15.289062 -22.890625 14.71875 -22.890625 C 12.644531 -22.890625 10.96875 -22.253906 9.6875 -20.984375 C 8.40625 -19.722656 7.765625 -17.976562 7.765625 -15.75 L 7.765625 0 L 4.03125 0 Z M 4.03125 -26.453125 "/></g></g></g><g fill="#7a0000" fill-opacity="1"><g transform="translate(235.981058, 213.25013)"><g><path d="M 13.171875 0.578125 C 10.867188 0.578125 8.769531 0.0976562 6.875 -0.859375 C 4.976562 -1.816406 3.359375 -3.273438 2.015625 -5.234375 L 4.765625 -7.59375 C 6.953125 -4.332031 9.789062 -2.703125 13.28125 -2.703125 C 15.125 -2.703125 16.585938 -3.09375 17.671875 -3.875 C 18.765625 -4.664062 19.3125 -5.734375 19.3125 -7.078125 C 19.3125 -8.179688 18.84375 -9.066406 17.90625 -9.734375 C 16.96875 -10.410156 15.40625 -11.035156 13.21875 -11.609375 C 9.925781 -12.453125 7.53125 -13.515625 6.03125 -14.796875 C 4.539062 -16.085938 3.796875 -17.710938 3.796875 -19.671875 C 3.796875 -21.890625 4.617188 -23.671875 6.265625 -25.015625 C 7.910156 -26.359375 10.097656 -27.03125 12.828125 -27.03125 C 14.890625 -27.03125 16.773438 -26.613281 18.484375 -25.78125 C 20.191406 -24.957031 21.660156 -23.742188 22.890625 -22.140625 L 20.125 -19.84375 C 18.28125 -22.445312 15.804688 -23.75 12.703125 -23.75 C 11.097656 -23.75 9.832031 -23.410156 8.90625 -22.734375 C 7.988281 -22.066406 7.53125 -21.140625 7.53125 -19.953125 C 7.53125 -18.835938 8 -17.9375 8.9375 -17.25 C 9.875 -16.5625 11.457031 -15.945312 13.6875 -15.40625 C 16.945312 -14.601562 19.320312 -13.554688 20.8125 -12.265625 C 22.3125 -10.984375 23.0625 -9.347656 23.0625 -7.359375 C 23.0625 -6.171875 22.820312 -5.085938 22.34375 -4.109375 C 21.863281 -3.128906 21.179688 -2.296875 20.296875 -1.609375 C 19.410156 -0.921875 18.363281 -0.382812 17.15625 0 C 15.957031 0.382812 14.628906 0.578125 13.171875 0.578125 Z M 13.171875 0.578125 "/></g></g></g><g fill="#7a0000" fill-opacity="1"><g transform="translate(261.624239, 213.25013)"><g><path d="M 13.109375 0.578125 C 10.921875 0.578125 9.191406 -0.0976562 7.921875 -1.453125 C 6.660156 -2.816406 6.03125 -4.691406 6.03125 -7.078125 L 6.03125 -23.109375 L 2.015625 -23.109375 L 2.015625 -26.453125 L 6.03125 -26.453125 L 6.03125 -33.46875 L 9.78125 -33.46875 L 9.78125 -26.453125 L 17.65625 -26.453125 L 17.65625 -23.109375 L 9.78125 -23.109375 L 9.78125 -7.078125 C 9.78125 -5.691406 10.113281 -4.625 10.78125 -3.875 C 11.445312 -3.132812 12.394531 -2.765625 13.625 -2.765625 C 15.195312 -2.765625 16.539062 -3.375 17.65625 -4.59375 L 19.5 -2.421875 C 18.6875 -1.460938 17.753906 -0.722656 16.703125 -0.203125 C 15.648438 0.316406 14.453125 0.578125 13.109375 0.578125 Z M 13.109375 0.578125 "/></g></g></g><g fill="#7a0000" fill-opacity="1"><g transform="translate(281.977788, 213.25013)"><g><path d="M 4.03125 -26.453125 L 7.765625 -26.453125 L 7.765625 -22.421875 C 9.796875 -25.492188 12.363281 -27.03125 15.46875 -27.03125 C 15.769531 -27.03125 16.054688 -27.019531 16.328125 -27 C 16.597656 -26.976562 16.828125 -26.945312 17.015625 -26.90625 L 16.265625 -22.71875 C 15.804688 -22.832031 15.289062 -22.890625 14.71875 -22.890625 C 12.644531 -22.890625 10.96875 -22.253906 9.6875 -20.984375 C 8.40625 -19.722656 7.765625 -17.976562 7.765625 -15.75 L 7.765625 0 L 4.03125 0 Z M 4.03125 -26.453125 "/></g></g></g><g fill="#7a0000" fill-opacity="1"><g transform="translate(299.859021, 213.25013)"><g><path d="M 11.265625 0.578125 C 9.921875 0.578125 8.679688 0.378906 7.546875 -0.015625 C 6.421875 -0.421875 5.445312 -0.988281 4.625 -1.71875 C 3.800781 -2.445312 3.160156 -3.316406 2.703125 -4.328125 C 2.242188 -5.347656 2.015625 -6.453125 2.015625 -7.640625 C 2.015625 -8.910156 2.269531 -10.0625 2.78125 -11.09375 C 3.300781 -12.132812 4.019531 -13.035156 4.9375 -13.796875 C 5.863281 -14.566406 6.945312 -15.160156 8.1875 -15.578125 C 9.4375 -16.003906 10.789062 -16.21875 12.25 -16.21875 C 13.851562 -16.21875 15.269531 -16.050781 16.5 -15.71875 C 17.726562 -15.394531 18.9375 -14.867188 20.125 -14.140625 L 20.125 -15.8125 C 20.125 -18.1875 19.476562 -20.09375 18.1875 -21.53125 C 16.90625 -22.96875 15.210938 -23.6875 13.109375 -23.6875 C 10.390625 -23.6875 8.164062 -22.5 6.4375 -20.125 L 3.6875 -22.421875 C 4.945312 -23.921875 6.398438 -25.0625 8.046875 -25.84375 C 9.691406 -26.632812 11.4375 -27.03125 13.28125 -27.03125 C 14.8125 -27.03125 16.226562 -26.757812 17.53125 -26.21875 C 18.84375 -25.6875 19.96875 -24.941406 20.90625 -23.984375 C 21.84375 -23.023438 22.566406 -21.882812 23.078125 -20.5625 C 23.597656 -19.238281 23.859375 -17.804688 23.859375 -16.265625 L 23.859375 0 L 20.125 0 L 20.125 -4.140625 C 19.007812 -2.523438 17.703125 -1.332031 16.203125 -0.5625 C 14.710938 0.195312 13.066406 0.578125 11.265625 0.578125 Z M 11.953125 -2.765625 C 13.148438 -2.765625 14.242188 -2.953125 15.234375 -3.328125 C 16.234375 -3.710938 17.097656 -4.238281 17.828125 -4.90625 C 18.554688 -5.582031 19.117188 -6.398438 19.515625 -7.359375 C 19.921875 -8.316406 20.125 -9.367188 20.125 -10.515625 C 18.863281 -11.398438 17.628906 -12.039062 16.421875 -12.4375 C 15.210938 -12.84375 13.78125 -13.046875 12.125 -13.046875 C 10.175781 -13.046875 8.625 -12.578125 7.46875 -11.640625 C 6.320312 -10.703125 5.75 -9.425781 5.75 -7.8125 C 5.75 -6.25 6.300781 -5.015625 7.40625 -4.109375 C 8.519531 -3.210938 10.035156 -2.765625 11.953125 -2.765625 Z M 11.953125 -2.765625 "/></g></g></g><g fill="#7a0000" fill-opacity="1"><g transform="translate(327.45705, 213.25013)"><g><path d="M 13.171875 0.578125 C 10.867188 0.578125 8.769531 0.0976562 6.875 -0.859375 C 4.976562 -1.816406 3.359375 -3.273438 2.015625 -5.234375 L 4.765625 -7.59375 C 6.953125 -4.332031 9.789062 -2.703125 13.28125 -2.703125 C 15.125 -2.703125 16.585938 -3.09375 17.671875 -3.875 C 18.765625 -4.664062 19.3125 -5.734375 19.3125 -7.078125 C 19.3125 -8.179688 18.84375 -9.066406 17.90625 -9.734375 C 16.96875 -10.410156 15.40625 -11.035156 13.21875 -11.609375 C 9.925781 -12.453125 7.53125 -13.515625 6.03125 -14.796875 C 4.539062 -16.085938 3.796875 -17.710938 3.796875 -19.671875 C 3.796875 -21.890625 4.617188 -23.671875 6.265625 -25.015625 C 7.910156 -26.359375 10.097656 -27.03125 12.828125 -27.03125 C 14.890625 -27.03125 16.773438 -26.613281 18.484375 -25.78125 C 20.191406 -24.957031 21.660156 -23.742188 22.890625 -22.140625 L 20.125 -19.84375 C 18.28125 -22.445312 15.804688 -23.75 12.703125 -23.75 C 11.097656 -23.75 9.832031 -23.410156 8.90625 -22.734375 C 7.988281 -22.066406 7.53125 -21.140625 7.53125 -19.953125 C 7.53125 -18.835938 8 -17.9375 8.9375 -17.25 C 9.875 -16.5625 11.457031 -15.945312 13.6875 -15.40625 C 16.945312 -14.601562 19.320312 -13.554688 20.8125 -12.265625 C 22.3125 -10.984375 23.0625 -9.347656 23.0625 -7.359375 C 23.0625 -6.171875 22.820312 -5.085938 22.34375 -4.109375 C 21.863281 -3.128906 21.179688 -2.296875 20.296875 -1.609375 C 19.410156 -0.921875 18.363281 -0.382812 17.15625 0 C 15.957031 0.382812 14.628906 0.578125 13.171875 0.578125 Z M 13.171875 0.578125 "/></g></g></g><g fill="#7a0000" fill-opacity="1"><g transform="translate(353.100231, 213.25013)"><g><path d="M 13.171875 0.578125 C 10.867188 0.578125 8.769531 0.0976562 6.875 -0.859375 C 4.976562 -1.816406 3.359375 -3.273438 2.015625 -5.234375 L 4.765625 -7.59375 C 6.953125 -4.332031 9.789062 -2.703125 13.28125 -2.703125 C 15.125 -2.703125 16.585938 -3.09375 17.671875 -3.875 C 18.765625 -4.664062 19.3125 -5.734375 19.3125 -7.078125 C 19.3125 -8.179688 18.84375 -9.066406 17.90625 -9.734375 C 16.96875 -10.410156 15.40625 -11.035156 13.21875 -11.609375 C 9.925781 -12.453125 7.53125 -13.515625 6.03125 -14.796875 C 4.539062 -16.085938 3.796875 -17.710938 3.796875 -19.671875 C 3.796875 -21.890625 4.617188 -23.671875 6.265625 -25.015625 C 7.910156 -26.359375 10.097656 -27.03125 12.828125 -27.03125 C 14.890625 -27.03125 16.773438 -26.613281 18.484375 -25.78125 C 20.191406 -24.957031 21.660156 -23.742188 22.890625 -22.140625 L 20.125 -19.84375 C 18.28125 -22.445312 15.804688 -23.75 12.703125 -23.75 C 11.097656 -23.75 9.832031 -23.410156 8.90625 -22.734375 C 7.988281 -22.066406 7.53125 -21.140625 7.53125 -19.953125 C 7.53125 -18.835938 8 -17.9375 8.9375 -17.25 C 9.875 -16.5625 11.457031 -15.945312 13.6875 -15.40625 C 16.945312 -14.601562 19.320312 -13.554688 20.8125 -12.265625 C 22.3125 -10.984375 23.0625 -9.347656 23.0625 -7.359375 C 23.0625 -6.171875 22.820312 -5.085938 22.34375 -4.109375 C 21.863281 -3.128906 21.179688 -2.296875 20.296875 -1.609375 C 19.410156 -0.921875 18.363281 -0.382812 17.15625 0 C 15.957031 0.382812 14.628906 0.578125 13.171875 0.578125 Z M 13.171875 0.578125 "/></g></g></g><g fill="#7a0000" fill-opacity="1"><g transform="translate(378.743412, 213.25013)"><g><path d="M 16.21875 0.578125 C 14.1875 0.578125 12.335938 0.234375 10.671875 -0.453125 C 9.003906 -1.148438 7.570312 -2.109375 6.375 -3.328125 C 5.1875 -4.554688 4.257812 -6.015625 3.59375 -7.703125 C 2.925781 -9.390625 2.59375 -11.226562 2.59375 -13.21875 C 2.59375 -15.21875 2.914062 -17.0625 3.5625 -18.75 C 4.21875 -20.4375 5.117188 -21.890625 6.265625 -23.109375 C 7.421875 -24.335938 8.789062 -25.296875 10.375 -25.984375 C 11.96875 -26.679688 13.722656 -27.03125 15.640625 -27.03125 C 17.441406 -27.03125 19.109375 -26.710938 20.640625 -26.078125 C 22.171875 -25.441406 23.492188 -24.566406 24.609375 -23.453125 C 25.722656 -22.347656 26.59375 -21.007812 27.21875 -19.4375 C 27.851562 -17.863281 28.171875 -16.140625 28.171875 -14.265625 C 28.171875 -13.492188 28.113281 -12.800781 28 -12.1875 L 6.5625 -12.1875 C 6.789062 -9.3125 7.796875 -7.054688 9.578125 -5.421875 C 11.359375 -3.796875 13.644531 -2.984375 16.4375 -2.984375 C 19.925781 -2.984375 22.84375 -4.328125 25.1875 -7.015625 L 27.59375 -5 C 26.21875 -3.164062 24.550781 -1.773438 22.59375 -0.828125 C 20.644531 0.109375 18.519531 0.578125 16.21875 0.578125 Z M 24.15625 -15.53125 C 23.84375 -18.050781 22.910156 -20 21.359375 -21.375 C 19.804688 -22.757812 17.863281 -23.453125 15.53125 -23.453125 C 13.113281 -23.453125 11.128906 -22.734375 9.578125 -21.296875 C 8.023438 -19.859375 7.054688 -17.9375 6.671875 -15.53125 Z M 24.15625 -15.53125 "/></g></g></g></g></g></svg>