<svg xmlns="http://www.w3.org/2000/svg" xmlns:xlink="http://www.w3.org/1999/xlink" width="1587" zoomAndPan="magnify" viewBox="0 0 1190.25 1683.749949" height="2245" preserveAspectRatio="xMidYMid meet" version="1.0">
<defs><clipPath id="47ae1c7c36"><path d="M 327 276 L 1189.5 276 L 1189.5 679 L 327 679 Z M 327 276 " clip-rule="nonzero"/></clipPath><clipPath id="9ce4450dd7"><rect x="0" width="863" y="0" height="403"/></clipPath><clipPath id="994e10ced1"><rect x="0" width="348" y="0" height="289"/></clipPath><clipPath id="d470d76fc2"><rect x="0" width="163" y="0" height="263"/></clipPath></defs>
<g clip-path="url(#47ae1c7c36)"><g transform="matrix(1, 0, 0, 1, 327, 276)"><g clip-path="url(#9ce4450dd7)"><g fill="#7a0000" fill-opacity="1"><g transform="translate(150.37817, 356.128972)"><g><path d="M -101.421875 -106.34375 L -80.96875 -130.734375 L 8.0625 -56.109375 L 40.546875 -94.859375 L 63.4375 -75.671875 L 10.5 -12.53125 Z M -101.421875 -106.34375 "/></g></g></g><g fill="#7a0000" fill-opacity="1"><g transform="translate(205.125062, 286.460582)"><g><path d="M -68.328125 -130.09375 L 0.828125 -176.90625 L 17.5625 -152.1875 L -25.234375 -123.21875 L -10.203125 -101.015625 L 21.03125 -122.15625 L 37.765625 -97.421875 L 6.53125 -76.28125 L 23.15625 -51.734375 L 66.84375 -81.3125 L 83.578125 -56.578125 L 13.53125 -9.15625 Z M -68.328125 -130.09375 "/></g></g></g><g fill="#7a0000" fill-opacity="1"><g transform="translate(277.846083, 228.939251)"><g><path d="M -21.09375 -145.421875 L 9.703125 -153.46875 L 24.140625 -98.21875 L 79.1875 -112.59375 L 64.75 -167.84375 L 95.546875 -175.890625 L 132.453125 -34.59375 L 101.65625 -26.546875 L 86.71875 -83.703125 L 31.671875 -69.328125 L 46.609375 -12.171875 L 15.8125 -4.125 Z M -21.09375 -145.421875 "/></g></g></g><g fill="#7a0000" fill-opacity="1"><g transform="translate(411.285134, 198.917359)"><g/></g></g><g fill="#7a0000" fill-opacity="1"><g transform="translate(451.499288, 198.52995)"><g/></g></g><g fill="#7a0000" fill-opacity="1"><g transform="translate(491.459507, 203.074609)"><g/></g></g><g fill="#7a0000" fill-opacity="1"><g transform="translate(527.115252, 207.412042)"><g><path d="M 78.578125 -124.203125 L 153.65625 -87.671875 L 140.59375 -60.8125 L 94.140625 -83.421875 L 82.421875 -59.3125 L 116.328125 -42.8125 L 103.265625 -15.953125 L 69.359375 -32.453125 L 56.390625 -5.796875 L 103.828125 17.28125 L 90.765625 44.140625 L 14.703125 7.140625 Z M 78.578125 -124.203125 "/></g></g></g><g fill="#7a0000" fill-opacity="1"><g transform="translate(613.387169, 240.693847)"><g><path d="M 94.78125 -27.09375 L 32.28125 33.375 L 11.359375 11.75 L 118.21875 -91.625 L 129.75 -79.71875 L 122.015625 41.171875 L 184.53125 -19.296875 L 205.453125 2.328125 L 98.609375 105.6875 L 87.09375 93.78125 Z M 94.78125 -27.09375 "/></g></g></g></g></g></g>
<g transform="matrix(1, 0, 0, 1, 68, 485)"><g clip-path="url(#994e10ced1)"><g fill="#7a0000" fill-opacity="1"><g transform="translate(13.778403, 192.286196)"><g><path d="M 88.890625 -133.3125 L 108.734375 -129.15625 L 134.640625 28.140625 L 101.78125 21.28125 L 98.0625 -4.65625 L 48.765625 -14.96875 L 35.203125 7.359375 L 2.140625 0.453125 Z M 94.09375 -33.546875 L 87.9375 -78.71875 L 64 -39.828125 Z M 94.09375 -33.546875 "/></g></g></g><g fill="#7a0000" fill-opacity="1"><g transform="translate(176.715985, 223.253899)"><g><path d="M 30.21875 -93.84375 L 45.703125 -8.265625 L 16.078125 -2.90625 L -10.390625 -149.203125 L 5.921875 -152.15625 L 102.09375 -78.515625 L 86.609375 -164.09375 L 116.21875 -169.453125 L 142.6875 -23.171875 L 126.375 -20.21875 Z M 30.21875 -93.84375 "/></g></g></g></g></g>
<g transform="matrix(1, 0, 0, 1, 730, 198)"><g clip-path="url(#d470d76fc2)"><g fill="#cc7a00" fill-opacity="1"><g transform="translate(1.061511, 195.868279)"><g><path d="M 46.4375 -86.96875 L 46.4375 0 L 16.34375 0 L 16.34375 -148.671875 L 32.921875 -148.671875 L 114.4375 -59.078125 L 114.4375 -146.046875 L 144.53125 -146.046875 L 144.53125 2.609375 L 127.953125 2.609375 Z M 46.4375 -86.96875 "/></g></g></g></g></g>
</svg>