<svg xmlns="http://www.w3.org/2000/svg" xmlns:xlink="http://www.w3.org/1999/xlink" width="1587" zoomAndPan="magnify" viewBox="0 0 1190.25 1683.749949" height="2245" preserveAspectRatio="xMidYMid meet" version="1.0"><defs><clipPath id="5aa57f61fc"><path d="M 0 1447.207031 L 243 1447.207031 L 243 1491.429688 L 0 1491.429688 Z M 0 1447.207031 " clip-rule="nonzero"/></clipPath></defs><g clip-path="url(#5aa57f61fc)"><path fill="#cc7a00" d="M 195.410156 1491.183594 C 179.136719 1491.183594 170.316406 1483.929688 163.867188 1478.628906 C 158.566406 1474.253906 155.339844 1471.640625 147.816406 1471.640625 C 140.292969 1471.640625 137.089844 1474.277344 131.765625 1478.628906 C 125.316406 1483.929688 116.496094 1491.183594 100.226562 1491.183594 C 83.953125 1491.183594 75.132812 1483.929688 68.683594 1478.628906 C 63.382812 1474.253906 60.160156 1471.640625 52.632812 1471.640625 C 45.109375 1471.640625 41.910156 1474.277344 36.582031 1478.628906 C 30.132812 1483.929688 21.3125 1491.183594 5.042969 1491.183594 C -11.230469 1491.183594 -20.046875 1483.929688 -26.496094 1478.628906 C -31.800781 1474.253906 -35.023438 1471.640625 -42.550781 1471.640625 C -50.074219 1471.640625 -53.273438 1474.277344 -58.601562 1478.628906 C -65.050781 1483.929688 -73.871094 1491.183594 -90.140625 1491.183594 C -106.410156 1491.183594 -115.230469 1483.929688 -121.679688 1478.628906 C -126.984375 1474.253906 -130.207031 1471.640625 -137.730469 1471.640625 C -145.257812 1471.640625 -148.457031 1474.277344 -153.785156 1478.628906 C -160.234375 1483.929688 -169.050781 1491.183594 -185.324219 1491.183594 C -201.59375 1491.183594 -210.414062 1483.929688 -216.863281 1478.628906 C -222.191406 1474.277344 -225.390625 1471.640625 -232.914062 1471.640625 L -232.914062 1447.207031 C -216.644531 1447.207031 -207.824219 1454.464844 -201.375 1459.765625 C -196.074219 1464.140625 -192.847656 1466.753906 -185.324219 1466.753906 C -177.800781 1466.753906 -174.597656 1464.113281 -169.273438 1459.765625 C -162.824219 1454.464844 -154.003906 1447.207031 -137.730469 1447.207031 C -121.460938 1447.207031 -112.640625 1454.464844 -106.191406 1459.765625 C -100.890625 1464.140625 -97.664062 1466.753906 -90.140625 1466.753906 C -82.617188 1466.753906 -79.414062 1464.113281 -74.089844 1459.765625 C -67.640625 1454.464844 -58.820312 1447.207031 -42.550781 1447.207031 C -26.277344 1447.207031 -17.457031 1454.464844 -11.007812 1459.765625 C -5.707031 1464.140625 -2.484375 1466.753906 5.042969 1466.753906 C 12.566406 1466.753906 15.765625 1464.113281 21.09375 1459.765625 C 27.542969 1454.464844 36.363281 1447.207031 52.632812 1447.207031 C 68.90625 1447.207031 77.722656 1454.464844 84.175781 1459.765625 C 89.476562 1464.140625 92.699219 1466.753906 100.226562 1466.753906 C 107.75 1466.753906 110.949219 1464.113281 116.277344 1459.765625 C 122.726562 1454.464844 131.546875 1447.207031 147.816406 1447.207031 C 164.085938 1447.207031 172.90625 1454.464844 179.355469 1459.765625 C 184.660156 1464.140625 187.882812 1466.753906 195.410156 1466.753906 C 202.933594 1466.753906 206.132812 1464.113281 211.460938 1459.765625 C 217.910156 1454.464844 226.730469 1447.207031 243 1447.207031 L 243 1471.640625 C 235.476562 1471.640625 232.273438 1474.277344 226.949219 1478.628906 C 220.5 1483.929688 211.679688 1491.183594 195.410156 1491.183594 Z M 195.410156 1491.183594 " fill-opacity="1" fill-rule="nonzero"/></g></svg>