<svg xmlns="http://www.w3.org/2000/svg" xmlns:xlink="http://www.w3.org/1999/xlink" width="1587" zoomAndPan="magnify" viewBox="0 0 1190.25 1683.749949" height="2245" preserveAspectRatio="xMidYMid meet" version="1.0"><defs><clipPath id="ee56894aa6"><path d="M 1059.292969 1447.207031 L 1189.5 1447.207031 L 1189.5 1491.429688 L 1059.292969 1491.429688 Z M 1059.292969 1447.207031 " clip-rule="nonzero"/></clipPath></defs><g clip-path="url(#ee56894aa6)"><path fill="#cc7a00" d="M 1487.617188 1491.183594 C 1471.34375 1491.183594 1462.523438 1483.929688 1456.074219 1478.628906 C 1450.773438 1474.253906 1447.546875 1471.640625 1440.023438 1471.640625 C 1432.5 1471.640625 1429.296875 1474.277344 1423.972656 1478.628906 C 1417.523438 1483.929688 1408.703125 1491.183594 1392.433594 1491.183594 C 1376.160156 1491.183594 1367.34375 1483.929688 1360.890625 1478.628906 C 1355.589844 1474.253906 1352.367188 1471.640625 1344.839844 1471.640625 C 1337.316406 1471.640625 1334.117188 1474.277344 1328.789062 1478.628906 C 1322.339844 1483.929688 1313.519531 1491.183594 1297.25 1491.183594 C 1280.980469 1491.183594 1272.160156 1483.929688 1265.710938 1478.628906 C 1260.40625 1474.253906 1257.183594 1471.640625 1249.65625 1471.640625 C 1242.132812 1471.640625 1238.933594 1474.277344 1233.605469 1478.628906 C 1227.15625 1483.929688 1218.335938 1491.183594 1202.066406 1491.183594 C 1185.796875 1491.183594 1176.976562 1483.929688 1170.527344 1478.628906 C 1165.226562 1474.253906 1162 1471.640625 1154.476562 1471.640625 C 1146.949219 1471.640625 1143.75 1474.277344 1138.425781 1478.628906 C 1131.972656 1483.929688 1123.15625 1491.183594 1106.882812 1491.183594 C 1090.613281 1491.183594 1081.792969 1483.929688 1075.34375 1478.628906 C 1070.015625 1474.277344 1066.816406 1471.640625 1059.292969 1471.640625 L 1059.292969 1447.207031 C 1075.5625 1447.207031 1084.382812 1454.464844 1090.832031 1459.765625 C 1096.132812 1464.140625 1099.359375 1466.753906 1106.882812 1466.753906 C 1114.410156 1466.753906 1117.609375 1464.113281 1122.933594 1459.765625 C 1129.382812 1454.464844 1138.203125 1447.207031 1154.476562 1447.207031 C 1170.746094 1447.207031 1179.566406 1454.464844 1186.015625 1459.765625 C 1191.316406 1464.140625 1194.542969 1466.753906 1202.066406 1466.753906 C 1209.589844 1466.753906 1212.792969 1464.113281 1218.117188 1459.765625 C 1224.566406 1454.464844 1233.386719 1447.207031 1249.65625 1447.207031 C 1265.929688 1447.207031 1274.75 1454.464844 1281.199219 1459.765625 C 1286.5 1464.140625 1289.726562 1466.753906 1297.25 1466.753906 C 1304.773438 1466.753906 1307.976562 1464.113281 1313.300781 1459.765625 C 1319.75 1454.464844 1328.570312 1447.207031 1344.839844 1447.207031 C 1361.113281 1447.207031 1369.929688 1454.464844 1376.382812 1459.765625 C 1381.683594 1464.140625 1384.90625 1466.753906 1392.433594 1466.753906 C 1399.957031 1466.753906 1403.15625 1464.113281 1408.484375 1459.765625 C 1414.933594 1454.464844 1423.753906 1447.207031 1440.023438 1447.207031 C 1456.296875 1447.207031 1465.113281 1454.464844 1471.5625 1459.765625 C 1476.867188 1464.140625 1480.089844 1466.753906 1487.617188 1466.753906 C 1495.140625 1466.753906 1498.339844 1464.113281 1503.667969 1459.765625 C 1510.117188 1454.464844 1518.9375 1447.207031 1535.207031 1447.207031 L 1535.207031 1471.640625 C 1527.683594 1471.640625 1524.480469 1474.277344 1519.15625 1478.628906 C 1512.707031 1483.929688 1503.886719 1491.183594 1487.617188 1491.183594 Z M 1487.617188 1491.183594 " fill-opacity="1" fill-rule="nonzero"/></g></svg>